G04 #@! TF.FileFunction,Copper,L1,Top,Signal*
%FSLAX46Y46*%
G04 Gerber Fmt 4.6, Leading zero omitted, Abs format (unit mm)*
G04 Created by KiCad (PCBNEW 4.0.2-4+6225~38~ubuntu15.10.1-stable) date Sat 19 Mar 2016 20:36:07 GMT*
%MOMM*%
G01*
G04 APERTURE LIST*
%ADD10C,0.100000*%
%ADD11C,1.998980*%
%ADD12R,2.032000X1.727200*%
%ADD13O,2.032000X1.727200*%
%ADD14R,1.727200X1.727200*%
%ADD15O,1.727200X1.727200*%
%ADD16C,0.600000*%
%ADD17C,0.250000*%
G04 APERTURE END LIST*
D10*
D11*
X134620000Y-101600000D03*
X127000000Y-101600000D03*
D12*
X137160000Y-106680000D03*
D13*
X137160000Y-109220000D03*
X137160000Y-111760000D03*
X137160000Y-114300000D03*
X137160000Y-116840000D03*
D12*
X124460000Y-106680000D03*
D13*
X124460000Y-109220000D03*
X124460000Y-111760000D03*
X124460000Y-114300000D03*
X124460000Y-116840000D03*
D14*
X142240000Y-101600000D03*
D15*
X144780000Y-101600000D03*
X142240000Y-104140000D03*
X142240000Y-106680000D03*
X142240000Y-111760000D03*
X144780000Y-111760000D03*
X142240000Y-114300000D03*
X144780000Y-114300000D03*
X144780000Y-116840000D03*
X142240000Y-119380000D03*
X144780000Y-119380000D03*
X142240000Y-121920000D03*
X144780000Y-121920000D03*
D11*
X134620000Y-121920000D03*
X127000000Y-121920000D03*
D16*
X129540000Y-106680000D03*
X137160000Y-102870000D03*
X139700000Y-115570000D03*
X133350000Y-116840000D03*
X130810000Y-106680000D03*
D17*
X124460000Y-106680000D02*
X129540000Y-106680000D01*
X130810000Y-109220000D02*
X124460000Y-109220000D01*
X137160000Y-102870000D02*
X130810000Y-109220000D01*
X124460000Y-109220000D02*
X127000000Y-111760000D01*
X127000000Y-111760000D02*
X127000000Y-121920000D01*
X142240000Y-107950000D02*
X142240000Y-106680000D01*
X139700000Y-110490000D02*
X142240000Y-107950000D01*
X139700000Y-115570000D02*
X139700000Y-110490000D01*
X134620000Y-101600000D02*
X134620000Y-102870000D01*
X134620000Y-118110000D02*
X134620000Y-121920000D01*
X133350000Y-116840000D02*
X134620000Y-118110000D01*
X134620000Y-102870000D02*
X130810000Y-106680000D01*
X134620000Y-121920000D02*
X142240000Y-121920000D01*
X134620000Y-101600000D02*
X142240000Y-101600000D01*
M02*
