M48
;DRILL file {KiCad 4.0.2-4+6225~38~ubuntu15.10.1-stable} date Sat 19 Mar 2016 20:36:09 GMT
;FORMAT={-:-/ absolute / inch / decimal}
FMAT,2
INCH,TZ
T1C0.016
T2C0.039
T3C0.040
%
G90
G05
M72
T1
X5.1Y-4.2
X5.15Y-4.2
X5.25Y-4.6
X5.4Y-4.05
X5.5Y-4.55
T2
X5.Y-4.
X5.Y-4.8
X5.3Y-4.
X5.3Y-4.8
T3
X4.9Y-4.2
X4.9Y-4.3
X4.9Y-4.4
X4.9Y-4.5
X4.9Y-4.6
X5.4Y-4.2
X5.4Y-4.3
X5.4Y-4.4
X5.4Y-4.5
X5.4Y-4.6
X5.6Y-4.
X5.6Y-4.1
X5.6Y-4.2
X5.6Y-4.4
X5.6Y-4.5
X5.6Y-4.7
X5.6Y-4.8
X5.7Y-4.
X5.7Y-4.4
X5.7Y-4.5
X5.7Y-4.6
X5.7Y-4.7
X5.7Y-4.8
T0
M30
